<svg viewBox="0 0 383 144" fill="none" xmlns="http://www.w3.org/2000/svg">
  <path
    d="M197.92 68H181.727L199.972 12.7273H220.483L238.727 68H222.534L210.443 27.9489H210.011L197.92 68ZM194.898 46.1932H225.341V57.4205H194.898V46.1932ZM271.694 30C271.55 28.2008 270.875 26.7973 269.67 25.7898C268.482 24.7822 266.674 24.2784 264.245 24.2784C262.698 24.2784 261.429 24.4673 260.44 24.8452C259.468 25.205 258.748 25.6998 258.281 26.3295C257.813 26.9593 257.57 27.679 257.552 28.4886C257.516 29.1544 257.633 29.7571 257.903 30.2969C258.191 30.8187 258.64 31.2955 259.252 31.7273C259.864 32.1411 260.647 32.5189 261.6 32.8608C262.554 33.2027 263.687 33.5085 265.001 33.7784L269.535 34.75C272.594 35.3977 275.211 36.2524 277.388 37.3139C279.566 38.3755 281.347 39.6259 282.732 41.0653C284.118 42.4867 285.134 44.0881 285.782 45.8693C286.448 47.6506 286.79 49.5937 286.808 51.6989C286.79 55.3333 285.881 58.41 284.082 60.929C282.282 63.4479 279.71 65.3641 276.363 66.6776C273.034 67.991 269.031 68.6477 264.353 68.6477C259.549 68.6477 255.357 67.937 251.776 66.5156C248.214 65.0942 245.443 62.9081 243.464 59.9574C241.503 56.9886 240.513 53.1922 240.495 48.5682H254.745C254.835 50.2595 255.258 51.6809 256.013 52.8324C256.769 53.9839 257.831 54.8565 259.198 55.4503C260.584 56.044 262.23 56.3409 264.137 56.3409C265.738 56.3409 267.079 56.143 268.158 55.7472C269.238 55.3513 270.057 54.8026 270.614 54.1009C271.172 53.3991 271.46 52.5985 271.478 51.6989C271.46 50.8532 271.181 50.1155 270.641 49.4858C270.12 48.8381 269.256 48.2623 268.05 47.7585C266.845 47.2367 265.217 46.7509 263.165 46.3011L257.66 45.1136C252.766 44.0521 248.906 42.2798 246.082 39.7969C243.275 37.2959 241.88 33.8864 241.898 29.5682C241.88 26.0597 242.816 22.9919 244.705 20.3651C246.612 17.7202 249.248 15.66 252.613 14.1847C255.996 12.7093 259.873 11.9716 264.245 11.9716C268.707 11.9716 272.567 12.7183 275.823 14.2116C279.08 15.705 281.59 17.8101 283.353 20.527C285.134 23.2259 286.034 26.3835 286.052 30H271.694ZM292.516 68V12.7273H307.521V55.9091H329.868V68H292.516ZM365.729 30C365.585 28.2008 364.91 26.7973 363.705 25.7898C362.517 24.7822 360.709 24.2784 358.28 24.2784C356.733 24.2784 355.464 24.4673 354.475 24.8452C353.503 25.205 352.783 25.6998 352.316 26.3295C351.848 26.9593 351.605 27.679 351.587 28.4886C351.551 29.1544 351.668 29.7571 351.938 30.2969C352.226 30.8187 352.676 31.2955 353.287 31.7273C353.899 32.1411 354.682 32.5189 355.635 32.8608C356.589 33.2027 357.722 33.5085 359.036 33.7784L363.57 34.75C366.629 35.3977 369.247 36.2524 371.424 37.3139C373.601 38.3755 375.382 39.6259 376.767 41.0653C378.153 42.4867 379.169 44.0881 379.817 45.8693C380.483 47.6506 380.825 49.5937 380.843 51.6989C380.825 55.3333 379.916 58.41 378.117 60.929C376.318 63.4479 373.745 65.3641 370.398 66.6776C367.069 67.991 363.066 68.6477 358.388 68.6477C353.584 68.6477 349.392 67.937 345.811 66.5156C342.249 65.0942 339.478 62.9081 337.499 59.9574C335.538 56.9886 334.548 53.1922 334.53 48.5682H348.78C348.87 50.2595 349.293 51.6809 350.049 52.8324C350.804 53.9839 351.866 54.8565 353.233 55.4503C354.619 56.044 356.265 56.3409 358.172 56.3409C359.774 56.3409 361.114 56.143 362.194 55.7472C363.273 55.3513 364.092 54.8026 364.65 54.1009C365.207 53.3991 365.495 52.5985 365.513 51.6989C365.495 50.8532 365.216 50.1155 364.676 49.4858C364.155 48.8381 363.291 48.2623 362.086 47.7585C360.88 47.2367 359.252 46.7509 357.201 46.3011L351.695 45.1136C346.801 44.0521 342.942 42.2798 340.117 39.7969C337.31 37.2959 335.916 33.8864 335.934 29.5682C335.916 26.0597 336.851 22.9919 338.74 20.3651C340.648 17.7202 343.283 15.66 346.648 14.1847C350.031 12.7093 353.908 11.9716 358.28 11.9716C362.742 11.9716 366.602 12.7183 369.858 14.2116C373.115 15.705 375.625 17.8101 377.388 20.527C379.169 23.2259 380.069 26.3835 380.087 30H365.729Z"
    fill="white" />
  <path
    d="M203.318 105.818C203.114 104.091 202.284 102.75 200.83 101.795C199.375 100.841 197.591 100.364 195.477 100.364C193.932 100.364 192.58 100.614 191.42 101.114C190.273 101.614 189.375 102.301 188.727 103.176C188.091 104.051 187.773 105.045 187.773 106.159C187.773 107.091 187.994 107.892 188.438 108.562C188.892 109.222 189.472 109.773 190.176 110.216C190.881 110.648 191.619 111.006 192.392 111.29C193.165 111.562 193.875 111.784 194.523 111.955L198.068 112.909C198.977 113.148 199.989 113.477 201.102 113.898C202.227 114.318 203.301 114.892 204.324 115.619C205.358 116.335 206.21 117.256 206.881 118.381C207.551 119.506 207.886 120.886 207.886 122.523C207.886 124.409 207.392 126.114 206.403 127.636C205.426 129.159 203.994 130.369 202.108 131.267C200.233 132.165 197.955 132.614 195.273 132.614C192.773 132.614 190.608 132.21 188.778 131.403C186.96 130.597 185.528 129.472 184.483 128.028C183.449 126.585 182.864 124.909 182.727 123H187.091C187.205 124.318 187.648 125.409 188.42 126.273C189.205 127.125 190.193 127.761 191.386 128.182C192.591 128.591 193.886 128.795 195.273 128.795C196.886 128.795 198.335 128.534 199.619 128.011C200.903 127.477 201.92 126.739 202.67 125.795C203.42 124.841 203.795 123.727 203.795 122.455C203.795 121.295 203.472 120.352 202.824 119.625C202.176 118.898 201.324 118.307 200.267 117.852C199.21 117.398 198.068 117 196.841 116.659L192.545 115.432C189.818 114.648 187.659 113.528 186.068 112.074C184.477 110.619 183.682 108.716 183.682 106.364C183.682 104.409 184.21 102.705 185.267 101.25C186.335 99.7841 187.767 98.6477 189.562 97.8409C191.369 97.0227 193.386 96.6136 195.614 96.6136C197.864 96.6136 199.864 97.017 201.614 97.8239C203.364 98.6193 204.75 99.7102 205.773 101.097C206.807 102.483 207.352 104.057 207.409 105.818H203.318ZM212.928 100.841V97.0909H239.109V100.841H228.132V132H223.905V100.841H212.928ZM268.543 97.0909H272.77V120.205C272.77 122.591 272.207 124.722 271.082 126.597C269.969 128.46 268.395 129.932 266.361 131.011C264.327 132.08 261.94 132.614 259.202 132.614C256.463 132.614 254.077 132.08 252.043 131.011C250.009 129.932 248.429 128.46 247.304 126.597C246.19 124.722 245.634 122.591 245.634 120.205V97.0909H249.861V119.864C249.861 121.568 250.236 123.085 250.986 124.415C251.736 125.733 252.804 126.773 254.19 127.534C255.588 128.284 257.259 128.659 259.202 128.659C261.145 128.659 262.815 128.284 264.213 127.534C265.611 126.773 266.679 125.733 267.418 124.415C268.168 123.085 268.543 121.568 268.543 119.864V97.0909ZM291.984 132H281.212V97.0909H292.462C295.848 97.0909 298.746 97.7898 301.155 99.1875C303.564 100.574 305.411 102.568 306.695 105.17C307.979 107.761 308.621 110.864 308.621 114.477C308.621 118.114 307.973 121.244 306.678 123.869C305.382 126.483 303.496 128.494 301.018 129.903C298.541 131.301 295.53 132 291.984 132ZM285.439 128.25H291.712C294.598 128.25 296.99 127.693 298.888 126.58C300.786 125.466 302.2 123.881 303.132 121.824C304.064 119.767 304.53 117.318 304.53 114.477C304.53 111.659 304.07 109.233 303.149 107.199C302.229 105.153 300.854 103.585 299.024 102.494C297.195 101.392 294.916 100.841 292.189 100.841H285.439V128.25ZM319.939 97.0909V132H315.712V97.0909H319.939ZM357.869 114.545C357.869 118.227 357.205 121.409 355.875 124.091C354.545 126.773 352.722 128.841 350.403 130.295C348.085 131.75 345.438 132.477 342.46 132.477C339.483 132.477 336.835 131.75 334.517 130.295C332.199 128.841 330.375 126.773 329.045 124.091C327.716 121.409 327.051 118.227 327.051 114.545C327.051 110.864 327.716 107.682 329.045 105C330.375 102.318 332.199 100.25 334.517 98.7955C336.835 97.3409 339.483 96.6136 342.46 96.6136C345.438 96.6136 348.085 97.3409 350.403 98.7955C352.722 100.25 354.545 102.318 355.875 105C357.205 107.682 357.869 110.864 357.869 114.545ZM353.778 114.545C353.778 111.523 353.273 108.972 352.261 106.892C351.261 104.812 349.903 103.239 348.188 102.17C346.483 101.102 344.574 100.568 342.46 100.568C340.347 100.568 338.432 101.102 336.716 102.17C335.011 103.239 333.653 104.812 332.642 106.892C331.642 108.972 331.142 111.523 331.142 114.545C331.142 117.568 331.642 120.119 332.642 122.199C333.653 124.278 335.011 125.852 336.716 126.92C338.432 127.989 340.347 128.523 342.46 128.523C344.574 128.523 346.483 127.989 348.188 126.92C349.903 125.852 351.261 124.278 352.261 122.199C353.273 120.119 353.778 117.568 353.778 114.545ZM365.161 132.273C364.32 132.273 363.598 131.972 362.996 131.369C362.393 130.767 362.092 130.045 362.092 129.205C362.092 128.364 362.393 127.642 362.996 127.04C363.598 126.437 364.32 126.136 365.161 126.136C366.001 126.136 366.723 126.437 367.325 127.04C367.928 127.642 368.229 128.364 368.229 129.205C368.229 129.761 368.087 130.273 367.803 130.739C367.53 131.205 367.161 131.58 366.695 131.864C366.24 132.136 365.729 132.273 365.161 132.273Z"
    fill="white" />
  <path fill-rule="evenodd" clip-rule="evenodd"
    d="M16 0C7.16344 0 0 7.16344 0 16V128C0 136.837 7.16344 144 16 144H128C136.837 144 144 136.837 144 128V16C144 7.16344 136.837 0 128 0H16ZM80.0797 44.3571C82.4479 45.9478 83.9327 48.3541 84.5341 51.5759L110.462 48.8508C109.743 42.3234 107.52 36.7919 103.791 32.2563C100.091 27.6847 95.1587 24.3596 88.9943 22.2809C82.8299 20.2022 75.7187 19.5864 67.6608 20.4333C59.7654 21.2631 52.9035 23.3312 47.0751 26.6375C41.2793 29.9404 36.9103 34.161 33.9682 39.2992C31.0552 44.4016 29.9479 50.1189 30.6463 56.4514C31.4334 64.2527 34.5986 70.1452 40.142 74.1288C45.7144 78.0765 53.0202 80.5444 62.0594 81.5325L72.2271 82.6319C76.0165 83.0549 79.0492 83.6231 81.3252 84.3366C83.5977 85.0175 85.2666 85.8933 86.3318 86.964C87.4261 87.9987 88.0697 89.278 88.2627 90.8017C88.401 92.4296 88.0331 93.9302 87.159 95.3032C86.285 96.6762 84.9108 97.8226 83.0364 98.7423C81.162 99.662 78.779 100.274 75.8873 100.578C72.4432 100.94 69.4138 100.716 66.7993 99.9069C64.2172 99.0942 62.1346 97.7198 60.5514 95.7838C58.9682 93.8478 57.9349 91.3612 57.4514 88.3241L31.7182 91.0287C32.6283 99.3756 35.1359 106.044 39.241 111.032C43.3751 115.985 48.7937 119.407 55.4968 121.298C62.2324 123.185 69.9378 123.673 78.613 122.761C87.0608 121.873 94.1655 119.927 99.9271 116.924C105.721 113.917 110.004 109.968 112.775 105.078C115.546 100.187 116.603 94.4588 115.945 87.8921C115.513 84.094 114.527 80.6498 112.987 77.5595C111.479 74.4658 109.34 71.767 106.568 69.4631C103.793 67.1267 100.339 65.2067 96.2059 63.7029C92.0729 62.1991 87.1832 61.1526 81.5367 60.5635L73.1644 59.6695C70.7413 59.4315 68.6363 59.0942 66.8494 58.6579C65.0625 58.2216 63.5774 57.6878 62.3941 57.0566C61.2074 56.3929 60.3046 55.6173 59.6858 54.7296C59.0959 53.8061 58.7703 52.7399 58.709 51.5308C58.5878 50.0653 58.8898 48.7195 59.6151 47.4935C60.3403 46.2676 61.5461 45.2374 63.2323 44.4032C64.9476 43.5331 67.2024 42.9511 69.9967 42.6575C74.383 42.1964 77.744 42.763 80.0797 44.3571Z"
    fill="white" />
</svg>
