<svg width="144" height="144" viewBox="0 0 144 144" fill="none" xmlns="http://www.w3.org/2000/svg">
<path fill-rule="evenodd" clip-rule="evenodd" d="M16 0C7.16344 0 0 7.16344 0 16V128C0 136.837 7.16344 144 16 144H128C136.837 144 144 136.837 144 128V16C144 7.16344 136.837 0 128 0H16ZM80.0797 44.3571C82.4479 45.9478 83.9327 48.3541 84.5341 51.5759L110.462 48.8508C109.743 42.3234 107.52 36.7919 103.791 32.2563C100.091 27.6847 95.1587 24.3596 88.9943 22.2809C82.8299 20.2022 75.7187 19.5864 67.6608 20.4333C59.7654 21.2631 52.9035 23.3312 47.0751 26.6375C41.2793 29.9404 36.9103 34.161 33.9682 39.2992C31.0552 44.4016 29.9479 50.1189 30.6463 56.4514C31.4334 64.2527 34.5986 70.1452 40.142 74.1288C45.7144 78.0765 53.0202 80.5444 62.0594 81.5325L72.2271 82.6319C76.0165 83.0549 79.0492 83.6231 81.3252 84.3366C83.5977 85.0175 85.2666 85.8933 86.3318 86.964C87.4261 87.9987 88.0697 89.278 88.2627 90.8017C88.401 92.4296 88.0331 93.9302 87.159 95.3032C86.285 96.6762 84.9108 97.8226 83.0364 98.7423C81.162 99.662 78.779 100.274 75.8873 100.578C72.4432 100.94 69.4138 100.716 66.7993 99.9069C64.2172 99.0942 62.1346 97.7198 60.5514 95.7838C58.9682 93.8478 57.9349 91.3612 57.4514 88.3241L31.7182 91.0287C32.6283 99.3756 35.1359 106.044 39.241 111.032C43.3751 115.985 48.7937 119.407 55.4968 121.298C62.2324 123.185 69.9378 123.673 78.613 122.761C87.0608 121.873 94.1655 119.927 99.9271 116.924C105.721 113.917 110.004 109.968 112.775 105.078C115.546 100.187 116.603 94.4588 115.945 87.8921C115.513 84.094 114.527 80.6498 112.987 77.5595C111.479 74.4658 109.34 71.767 106.568 69.4631C103.793 67.1267 100.339 65.2067 96.2059 63.7029C92.0729 62.1991 87.1832 61.1526 81.5367 60.5635L73.1644 59.6695C70.7413 59.4315 68.6363 59.0942 66.8494 58.6579C65.0625 58.2216 63.5774 57.6878 62.3941 57.0566C61.2074 56.3929 60.3046 55.6173 59.6858 54.7296C59.0959 53.8061 58.7703 52.7399 58.709 51.5308C58.5878 50.0653 58.8898 48.7195 59.6151 47.4935C60.3403 46.2676 61.5461 45.2374 63.2323 44.4032C64.9476 43.5331 67.2024 42.9511 69.9967 42.6575C74.383 42.1964 77.744 42.763 80.0797 44.3571Z" fill="white"/>
</svg>
