<?xml version="1.0" encoding="UTF-8" standalone="no"?>
<!-- Generator: Adobe Illustrator 19.0.0, SVG Export Plug-In . SVG Version: 6.00 Build 0)  -->

<svg
   xmlns:dc="http://purl.org/dc/elements/1.1/"
   xmlns:cc="http://creativecommons.org/ns#"
   xmlns:rdf="http://www.w3.org/1999/02/22-rdf-syntax-ns#"
   xmlns:svg="http://www.w3.org/2000/svg"
   xmlns="http://www.w3.org/2000/svg"
   xmlns:sodipodi="http://sodipodi.sourceforge.net/DTD/sodipodi-0.dtd"
   xmlns:inkscape="http://www.inkscape.org/namespaces/inkscape"
   version="1.1"
   id="Capa_1"
   x="0px"
   y="0px"
   viewBox="0 0 512 512"
   style="enable-background:new 0 0 512 512;"
   xml:space="preserve"
   sodipodi:docname="adjust.svg"
   inkscape:version="0.92.4 (5da689c313, 2019-01-14)"><metadata
   id="metadata1256"><rdf:RDF><cc:Work
       rdf:about=""><dc:format>image/svg+xml</dc:format><dc:type
         rdf:resource="http://purl.org/dc/dcmitype/StillImage" /></cc:Work></rdf:RDF></metadata><defs
   id="defs1254" /><sodipodi:namedview
   pagecolor="#ffffff"
   bordercolor="#666666"
   borderopacity="1"
   objecttolerance="10"
   gridtolerance="10"
   guidetolerance="10"
   inkscape:pageopacity="0"
   inkscape:pageshadow="2"
   inkscape:window-width="1920"
   inkscape:window-height="1021"
   id="namedview1252"
   showgrid="false"
   inkscape:zoom="0.4609375"
   inkscape:cx="256"
   inkscape:cy="256"
   inkscape:window-x="0"
   inkscape:window-y="31"
   inkscape:window-maximized="1"
   inkscape:current-layer="Capa_1" />
<g
   id="g1207"
   style="fill:#ffffff">
	<g
   id="g1205"
   style="fill:#ffffff">
		<path
   d="M490.667,405.333h-56.811C424.619,374.592,396.373,352,362.667,352s-61.931,22.592-71.189,53.333H21.333    C9.557,405.333,0,414.891,0,426.667S9.557,448,21.333,448h270.144c9.237,30.741,37.483,53.333,71.189,53.333    s61.931-22.592,71.189-53.333h56.811c11.797,0,21.333-9.557,21.333-21.333S502.464,405.333,490.667,405.333z M362.667,458.667    c-17.643,0-32-14.357-32-32s14.357-32,32-32s32,14.357,32,32S380.309,458.667,362.667,458.667z"
   id="path1203"
   style="fill:#ffffff" />
	</g>
</g>
<g
   id="g1213"
   style="fill:#ffffff">
	<g
   id="g1211"
   style="fill:#ffffff">
		<path
   d="M490.667,64h-56.811c-9.259-30.741-37.483-53.333-71.189-53.333S300.736,33.259,291.477,64H21.333    C9.557,64,0,73.557,0,85.333s9.557,21.333,21.333,21.333h270.144C300.736,137.408,328.96,160,362.667,160    s61.931-22.592,71.189-53.333h56.811c11.797,0,21.333-9.557,21.333-21.333S502.464,64,490.667,64z M362.667,117.333    c-17.643,0-32-14.357-32-32c0-17.643,14.357-32,32-32s32,14.357,32,32C394.667,102.976,380.309,117.333,362.667,117.333z"
   id="path1209"
   style="fill:#ffffff" />
	</g>
</g>
<g
   id="g1219"
   style="fill:#ffffff">
	<g
   id="g1217"
   style="fill:#ffffff">
		<path
   d="M490.667,234.667H220.523c-9.259-30.741-37.483-53.333-71.189-53.333s-61.931,22.592-71.189,53.333H21.333    C9.557,234.667,0,244.224,0,256c0,11.776,9.557,21.333,21.333,21.333h56.811c9.259,30.741,37.483,53.333,71.189,53.333    s61.931-22.592,71.189-53.333h270.144c11.797,0,21.333-9.557,21.333-21.333C512,244.224,502.464,234.667,490.667,234.667z     M149.333,288c-17.643,0-32-14.357-32-32s14.357-32,32-32c17.643,0,32,14.357,32,32S166.976,288,149.333,288z"
   id="path1215"
   style="fill:#ffffff" />
	</g>
</g>
<g
   id="g1221"
   style="fill:#ffffff">
</g>
<g
   id="g1223"
   style="fill:#ffffff">
</g>
<g
   id="g1225"
   style="fill:#ffffff">
</g>
<g
   id="g1227"
   style="fill:#ffffff">
</g>
<g
   id="g1229"
   style="fill:#ffffff">
</g>
<g
   id="g1231"
   style="fill:#ffffff">
</g>
<g
   id="g1233"
   style="fill:#ffffff">
</g>
<g
   id="g1235"
   style="fill:#ffffff">
</g>
<g
   id="g1237"
   style="fill:#ffffff">
</g>
<g
   id="g1239"
   style="fill:#ffffff">
</g>
<g
   id="g1241"
   style="fill:#ffffff">
</g>
<g
   id="g1243"
   style="fill:#ffffff">
</g>
<g
   id="g1245"
   style="fill:#ffffff">
</g>
<g
   id="g1247"
   style="fill:#ffffff">
</g>
<g
   id="g1249"
   style="fill:#ffffff">
</g>
</svg>