<?xml version="1.0" encoding="UTF-8" standalone="no"?>
<!-- Generator: Adobe Illustrator 19.0.0, SVG Export Plug-In . SVG Version: 6.00 Build 0)  -->

<svg
   xmlns:dc="http://purl.org/dc/elements/1.1/"
   xmlns:cc="http://creativecommons.org/ns#"
   xmlns:rdf="http://www.w3.org/1999/02/22-rdf-syntax-ns#"
   xmlns:svg="http://www.w3.org/2000/svg"
   xmlns="http://www.w3.org/2000/svg"
   xmlns:sodipodi="http://sodipodi.sourceforge.net/DTD/sodipodi-0.dtd"
   xmlns:inkscape="http://www.inkscape.org/namespaces/inkscape"
   version="1.1"
   id="Capa_1"
   x="0px"
   y="0px"
   viewBox="0 0 16.800018 13.999998"
   xml:space="preserve"
   sodipodi:docname="folder.svg"
   inkscape:version="0.92.4 (5da689c313, 2019-01-14)"
   width="16.800018"
   height="13.999998"><metadata
   id="metadata43"><rdf:RDF><cc:Work
       rdf:about=""><dc:format>image/svg+xml</dc:format><dc:type
         rdf:resource="http://purl.org/dc/dcmitype/StillImage" /></cc:Work></rdf:RDF></metadata><defs
   id="defs41" /><sodipodi:namedview
   pagecolor="#ffffff"
   bordercolor="#666666"
   borderopacity="1"
   objecttolerance="10"
   gridtolerance="10"
   guidetolerance="10"
   inkscape:pageopacity="0"
   inkscape:pageshadow="2"
   inkscape:window-width="1920"
   inkscape:window-height="1021"
   id="namedview39"
   showgrid="false"
   inkscape:zoom="14.75"
   inkscape:cx="-1.3419944"
   inkscape:cy="6.1826849"
   inkscape:window-x="0"
   inkscape:window-y="31"
   inkscape:window-maximized="1"
   inkscape:current-layer="g4" />
<g
   id="g6"
   transform="matrix(0.03281247,0,0,0.03281247,0,-1.3999768)">
	<g
   id="g4">
		<path
   d="M 469.333,85.333 H 249.75 L 210.208,45.791 c -2,-2 -4.708,-3.125 -7.542,-3.125 h -160 C 19.135,42.667 0,61.802 0,85.333 v 341.333 c 0,23.531 19.135,42.667 42.667,42.667 h 426.667 c 23.531,0 42.667,-19.135 42.667,-42.667 V 128 C 512,104.469 492.865,85.333 469.333,85.333 Z"
   id="path2"
   inkscape:connector-curvature="0"
   style="fill:#ffffff;fill-opacity:0.70196078" />
	</g>
</g>
<g
   id="g8"
   transform="translate(-87.441544,-353.31788)">
</g>
<g
   id="g10"
   transform="translate(-87.441544,-353.31788)">
</g>
<g
   id="g12"
   transform="translate(-87.441544,-353.31788)">
</g>
<g
   id="g14"
   transform="translate(-87.441544,-353.31788)">
</g>
<g
   id="g16"
   transform="translate(-87.441544,-353.31788)">
</g>
<g
   id="g18"
   transform="translate(-87.441544,-353.31788)">
</g>
<g
   id="g20"
   transform="translate(-87.441544,-353.31788)">
</g>
<g
   id="g22"
   transform="translate(-87.441544,-353.31788)">
</g>
<g
   id="g24"
   transform="translate(-87.441544,-353.31788)">
</g>
<g
   id="g26"
   transform="translate(-87.441544,-353.31788)">
</g>
<g
   id="g28"
   transform="translate(-87.441544,-353.31788)">
</g>
<g
   id="g30"
   transform="translate(-87.441544,-353.31788)">
</g>
<g
   id="g32"
   transform="translate(-87.441544,-353.31788)">
</g>
<g
   id="g34"
   transform="translate(-87.441544,-353.31788)">
</g>
<g
   id="g36"
   transform="translate(-87.441544,-353.31788)">
</g>
</svg>