<?xml version="1.0" encoding="UTF-8" standalone="no"?>
<!-- Generator: Adobe Illustrator 19.0.0, SVG Export Plug-In . SVG Version: 6.00 Build 0)  -->

<svg
   xmlns:dc="http://purl.org/dc/elements/1.1/"
   xmlns:cc="http://creativecommons.org/ns#"
   xmlns:rdf="http://www.w3.org/1999/02/22-rdf-syntax-ns#"
   xmlns:svg="http://www.w3.org/2000/svg"
   xmlns="http://www.w3.org/2000/svg"
   xmlns:sodipodi="http://sodipodi.sourceforge.net/DTD/sodipodi-0.dtd"
   xmlns:inkscape="http://www.inkscape.org/namespaces/inkscape"
   version="1.1"
   id="Capa_1"
   x="0px"
   y="0px"
   viewBox="0 0 512 512"
   style="enable-background:new 0 0 512 512;"
   xml:space="preserve"
   sodipodi:docname="knob.svg"
   inkscape:version="0.92.4 (5da689c313, 2019-01-14)"><metadata
   id="metadata5031"><rdf:RDF><cc:Work
       rdf:about=""><dc:format>image/svg+xml</dc:format><dc:type
         rdf:resource="http://purl.org/dc/dcmitype/StillImage" /></cc:Work></rdf:RDF></metadata><defs
   id="defs5029" /><sodipodi:namedview
   pagecolor="#ffffff"
   bordercolor="#666666"
   borderopacity="1"
   objecttolerance="10"
   gridtolerance="10"
   guidetolerance="10"
   inkscape:pageopacity="0"
   inkscape:pageshadow="2"
   inkscape:window-width="640"
   inkscape:window-height="480"
   id="namedview5027"
   showgrid="false"
   inkscape:zoom="0.4609375"
   inkscape:cx="256"
   inkscape:cy="256"
   inkscape:window-x="0"
   inkscape:window-y="31"
   inkscape:window-maximized="0"
   inkscape:current-layer="Capa_1" />
<g
   id="g4994"
   style="fill:#ffffff">
	<g
   id="g4992"
   style="fill:#ffffff">
		<g
   id="g4990"
   style="fill:#ffffff">
			<path
   d="M256,42.667c-141.163,0-256,114.837-256,256C0,310.443,9.536,320,21.333,320c11.797,0,21.333-9.557,21.333-21.333     c0-117.632,95.701-213.333,213.333-213.333s213.333,95.701,213.333,213.333c0,11.776,9.536,21.333,21.333,21.333     S512,310.443,512,298.667C512,157.504,397.163,42.667,256,42.667z"
   id="path4986"
   style="fill:#ffffff" />
			<path
   d="M271.083,335.083c-4.16,4.16-9.621,6.251-15.083,6.251s-10.923-2.091-15.083-6.251c-8.341-8.341-8.341-21.824,0-30.165     l104.341-104.341c-24.939-18.688-55.765-29.909-89.259-29.909c-82.325,0-149.333,66.987-149.333,149.333     S173.675,469.333,256,469.333S405.333,402.347,405.333,320c0-33.493-11.221-64.32-29.909-89.259L271.083,335.083z"
   id="path4988"
   style="fill:#ffffff" />
		</g>
	</g>
</g>
<g
   id="g4996"
   style="fill:#ffffff">
</g>
<g
   id="g4998"
   style="fill:#ffffff">
</g>
<g
   id="g5000"
   style="fill:#ffffff">
</g>
<g
   id="g5002"
   style="fill:#ffffff">
</g>
<g
   id="g5004"
   style="fill:#ffffff">
</g>
<g
   id="g5006"
   style="fill:#ffffff">
</g>
<g
   id="g5008"
   style="fill:#ffffff">
</g>
<g
   id="g5010"
   style="fill:#ffffff">
</g>
<g
   id="g5012"
   style="fill:#ffffff">
</g>
<g
   id="g5014"
   style="fill:#ffffff">
</g>
<g
   id="g5016"
   style="fill:#ffffff">
</g>
<g
   id="g5018"
   style="fill:#ffffff">
</g>
<g
   id="g5020"
   style="fill:#ffffff">
</g>
<g
   id="g5022"
   style="fill:#ffffff">
</g>
<g
   id="g5024"
   style="fill:#ffffff">
</g>
</svg>