<?xml version="1.0" encoding="UTF-8" standalone="no"?>
<!-- Generator: Adobe Illustrator 18.0.0, SVG Export Plug-In . SVG Version: 6.00 Build 0)  -->

<svg
   xmlns:dc="http://purl.org/dc/elements/1.1/"
   xmlns:cc="http://creativecommons.org/ns#"
   xmlns:rdf="http://www.w3.org/1999/02/22-rdf-syntax-ns#"
   xmlns:svg="http://www.w3.org/2000/svg"
   xmlns="http://www.w3.org/2000/svg"
   xmlns:sodipodi="http://sodipodi.sourceforge.net/DTD/sodipodi-0.dtd"
   xmlns:inkscape="http://www.inkscape.org/namespaces/inkscape"
   version="1.1"
   id="Capa_1"
   x="0px"
   y="0px"
   viewBox="0 0 492.523 492.523"
   style="enable-background:new 0 0 492.523 492.523;"
   xml:space="preserve"
   sodipodi:docname="mixer.svg"
   inkscape:version="0.92.4 (5da689c313, 2019-01-14)"><metadata
   id="metadata5337"><rdf:RDF><cc:Work
       rdf:about=""><dc:format>image/svg+xml</dc:format><dc:type
         rdf:resource="http://purl.org/dc/dcmitype/StillImage" /></cc:Work></rdf:RDF></metadata><defs
   id="defs5335" /><sodipodi:namedview
   pagecolor="#ffffff"
   bordercolor="#666666"
   borderopacity="1"
   objecttolerance="10"
   gridtolerance="10"
   guidetolerance="10"
   inkscape:pageopacity="0"
   inkscape:pageshadow="2"
   inkscape:window-width="640"
   inkscape:window-height="480"
   id="namedview5333"
   showgrid="false"
   inkscape:zoom="0.47916543"
   inkscape:cx="246.26151"
   inkscape:cy="246.26151"
   inkscape:window-x="0"
   inkscape:window-y="31"
   inkscape:window-maximized="0"
   inkscape:current-layer="Capa_1" />
<g
   id="g5300"
   style="fill:#ffffff">
	<path
   d="M126.246,121.549h-30.85V82.932c0-13.84-11.205-25.055-25.037-25.055c-13.832,0-25.066,11.215-25.066,25.055v38.617H14.457   C6.469,121.549,0,128.037,0,136.029v58.738c0,7.992,6.469,14.48,14.457,14.48h30.836v200.344c0,13.84,11.234,25.055,25.066,25.055   c13.832,0,25.037-11.215,25.037-25.055V209.248h30.85c7.969,0,14.457-6.488,14.457-14.48v-58.738   C140.703,128.037,134.215,121.549,126.246,121.549z"
   id="path5294"
   style="fill:#ffffff" />
	<path
   d="M478.066,297.451H447.23V82.932c0-13.84-11.234-25.055-25.066-25.055s-25.037,11.215-25.037,25.055v214.52h-30.85   c-7.982,0-14.457,6.488-14.457,14.483v58.736c0,8,6.475,14.482,14.457,14.482h30.85v24.44c0,13.84,11.205,25.055,25.037,25.055   s25.066-11.215,25.066-25.055v-24.44h30.836c7.969,0,14.457-6.482,14.457-14.482v-58.736   C492.523,303.939,486.035,297.451,478.066,297.451z"
   id="path5296"
   style="fill:#ffffff" />
	<path
   d="M302.135,174.328h-30.836V82.932c0-13.84-11.205-25.055-25.037-25.055c-13.832,0-25.037,11.215-25.037,25.055v91.397   h-30.85c-8.018,0-14.492,6.479-14.492,14.48v58.729c0,7.994,6.475,14.484,14.492,14.484h30.85v147.57   c0,13.84,11.205,25.055,25.037,25.055c13.832,0,25.037-11.215,25.037-25.055v-147.57h30.836c7.982,0,14.486-6.49,14.486-14.484   v-58.729C316.621,180.807,310.117,174.328,302.135,174.328z"
   id="path5298"
   style="fill:#ffffff" />
</g>
<g
   id="g5302"
   style="fill:#ffffff">
</g>
<g
   id="g5304"
   style="fill:#ffffff">
</g>
<g
   id="g5306"
   style="fill:#ffffff">
</g>
<g
   id="g5308"
   style="fill:#ffffff">
</g>
<g
   id="g5310"
   style="fill:#ffffff">
</g>
<g
   id="g5312"
   style="fill:#ffffff">
</g>
<g
   id="g5314"
   style="fill:#ffffff">
</g>
<g
   id="g5316"
   style="fill:#ffffff">
</g>
<g
   id="g5318"
   style="fill:#ffffff">
</g>
<g
   id="g5320"
   style="fill:#ffffff">
</g>
<g
   id="g5322"
   style="fill:#ffffff">
</g>
<g
   id="g5324"
   style="fill:#ffffff">
</g>
<g
   id="g5326"
   style="fill:#ffffff">
</g>
<g
   id="g5328"
   style="fill:#ffffff">
</g>
<g
   id="g5330"
   style="fill:#ffffff">
</g>
</svg>