<?xml version="1.0" encoding="UTF-8" standalone="no"?>
<!-- Generator: Adobe Illustrator 19.0.0, SVG Export Plug-In . SVG Version: 6.00 Build 0)  -->

<svg
   xmlns:dc="http://purl.org/dc/elements/1.1/"
   xmlns:cc="http://creativecommons.org/ns#"
   xmlns:rdf="http://www.w3.org/1999/02/22-rdf-syntax-ns#"
   xmlns:svg="http://www.w3.org/2000/svg"
   xmlns="http://www.w3.org/2000/svg"
   xmlns:sodipodi="http://sodipodi.sourceforge.net/DTD/sodipodi-0.dtd"
   xmlns:inkscape="http://www.inkscape.org/namespaces/inkscape"
   version="1.1"
   id="Layer_1"
   x="0px"
   y="0px"
   viewBox="0 0 512 512"
   style="enable-background:new 0 0 512 512;"
   xml:space="preserve"
   sodipodi:docname="wave.svg"
   inkscape:version="0.92.4 (5da689c313, 2019-01-14)"><metadata
   id="metadata1956"><rdf:RDF><cc:Work
       rdf:about=""><dc:format>image/svg+xml</dc:format><dc:type
         rdf:resource="http://purl.org/dc/dcmitype/StillImage" /></cc:Work></rdf:RDF></metadata><defs
   id="defs1954" /><sodipodi:namedview
   pagecolor="#ffffff"
   bordercolor="#666666"
   borderopacity="1"
   objecttolerance="10"
   gridtolerance="10"
   guidetolerance="10"
   inkscape:pageopacity="0"
   inkscape:pageshadow="2"
   inkscape:window-width="640"
   inkscape:window-height="480"
   id="namedview1952"
   showgrid="false"
   inkscape:zoom="0.4609375"
   inkscape:cx="256"
   inkscape:cy="256"
   inkscape:window-x="0"
   inkscape:window-y="31"
   inkscape:window-maximized="0"
   inkscape:current-layer="Layer_1" />
<g
   id="g1907"
   style="fill:#ffffff">
	<g
   id="g1905"
   style="fill:#ffffff">
		<path
   d="M458.27,241.884c-17.151-12.473-36.589-26.611-74.264-26.611c-37.675,0-57.115,14.137-74.264,26.611    c-15.313,11.137-27.409,19.934-53.733,19.934c-26.326,0-38.422-8.797-53.737-19.934c-17.152-12.474-36.592-26.611-74.268-26.611    s-57.117,14.137-74.268,26.611C38.421,253.021,26.325,261.818,0,261.818v34.909c37.676,0,57.116-14.137,74.267-26.611    c15.315-11.137,27.411-19.934,53.737-19.934c26.325,0,38.421,8.797,53.737,19.934c17.151,12.474,36.592,26.611,74.268,26.611    c37.675,0,57.115-14.137,74.264-26.611c15.313-11.137,27.409-19.934,53.733-19.934c26.323,0,38.419,8.797,53.732,19.934    c17.15,12.474,36.588,26.611,74.262,26.611v-34.909C485.679,261.818,473.583,253.021,458.27,241.884z"
   id="path1903"
   style="fill:#ffffff" />
	</g>
</g>
<g
   id="g1913"
   style="fill:#ffffff">
	<g
   id="g1911"
   style="fill:#ffffff">
		<path
   d="M458.27,358.248c-17.151-12.473-36.589-26.611-74.264-26.611c-37.675,0-57.115,14.137-74.264,26.611    c-15.313,11.137-27.409,19.934-53.733,19.934c-26.326,0-38.422-8.797-53.737-19.934c-17.152-12.474-36.592-26.611-74.268-26.611    s-57.117,14.137-74.268,26.611C38.421,369.385,26.325,378.182,0,378.182v34.909c37.676,0,57.116-14.137,74.267-26.611    c15.315-11.137,27.411-19.934,53.737-19.934c26.325,0,38.421,8.797,53.737,19.934c17.151,12.474,36.592,26.611,74.268,26.611    c37.675,0,57.115-14.137,74.264-26.611c15.313-11.137,27.409-19.934,53.733-19.934c26.323,0,38.419,8.797,53.732,19.934    c17.15,12.474,36.588,26.611,74.262,26.611v-34.909C485.679,378.182,473.583,369.385,458.27,358.248z"
   id="path1909"
   style="fill:#ffffff" />
	</g>
</g>
<g
   id="g1919"
   style="fill:#ffffff">
	<g
   id="g1917"
   style="fill:#ffffff">
		<path
   d="M458.27,125.52c-17.151-12.473-36.589-26.611-74.264-26.611c-37.675,0-57.115,14.137-74.264,26.611    c-15.313,11.137-27.409,19.934-53.733,19.934c-26.326,0-38.422-8.797-53.737-19.934c-17.152-12.474-36.592-26.611-74.268-26.611    s-57.117,14.137-74.268,26.611C38.421,136.657,26.325,145.455,0,145.455v34.909c37.676,0,57.116-14.137,74.267-26.611    c15.315-11.137,27.411-19.934,53.737-19.934c26.325,0,38.421,8.797,53.737,19.934c17.151,12.474,36.592,26.611,74.268,26.611    c37.675,0,57.115-14.137,74.264-26.611c15.313-11.137,27.409-19.934,53.733-19.934c26.323,0,38.419,8.797,53.732,19.934    c17.15,12.474,36.588,26.611,74.262,26.611v-34.909C485.679,145.455,473.583,136.657,458.27,125.52z"
   id="path1915"
   style="fill:#ffffff" />
	</g>
</g>
<g
   id="g1921"
   style="fill:#ffffff">
</g>
<g
   id="g1923"
   style="fill:#ffffff">
</g>
<g
   id="g1925"
   style="fill:#ffffff">
</g>
<g
   id="g1927"
   style="fill:#ffffff">
</g>
<g
   id="g1929"
   style="fill:#ffffff">
</g>
<g
   id="g1931"
   style="fill:#ffffff">
</g>
<g
   id="g1933"
   style="fill:#ffffff">
</g>
<g
   id="g1935"
   style="fill:#ffffff">
</g>
<g
   id="g1937"
   style="fill:#ffffff">
</g>
<g
   id="g1939"
   style="fill:#ffffff">
</g>
<g
   id="g1941"
   style="fill:#ffffff">
</g>
<g
   id="g1943"
   style="fill:#ffffff">
</g>
<g
   id="g1945"
   style="fill:#ffffff">
</g>
<g
   id="g1947"
   style="fill:#ffffff">
</g>
<g
   id="g1949"
   style="fill:#ffffff">
</g>
</svg>