<?xml version="1.0" encoding="UTF-8" standalone="no"?>
<svg
   xmlns:dc="http://purl.org/dc/elements/1.1/"
   xmlns:cc="http://creativecommons.org/ns#"
   xmlns:rdf="http://www.w3.org/1999/02/22-rdf-syntax-ns#"
   xmlns:svg="http://www.w3.org/2000/svg"
   xmlns="http://www.w3.org/2000/svg"
   xmlns:sodipodi="http://sodipodi.sourceforge.net/DTD/sodipodi-0.dtd"
   xmlns:inkscape="http://www.inkscape.org/namespaces/inkscape"
   inkscape:version="1.0 (4035a4fb49, 2020-05-01)"
   sodipodi:docname="colorintensitycyan.svg"
   id="svg1032"
   xml:space="preserve"
   viewBox="0 0 300 300"
   version="1.1"><metadata
   id="metadata1038"><rdf:RDF><cc:Work
       rdf:about=""><dc:format>image/svg+xml</dc:format><dc:type
         rdf:resource="http://purl.org/dc/dcmitype/StillImage" /><dc:title></dc:title></cc:Work></rdf:RDF></metadata><defs
   id="defs1036" /><sodipodi:namedview
   inkscape:current-layer="svg1032"
   inkscape:window-maximized="1"
   inkscape:window-y="0"
   inkscape:window-x="1920"
   inkscape:cy="107.15236"
   inkscape:cx="90.876491"
   inkscape:zoom="1"
   showgrid="false"
   id="namedview1034"
   inkscape:window-height="1052"
   inkscape:window-width="1920"
   inkscape:pageshadow="2"
   inkscape:pageopacity="0"
   guidetolerance="10"
   gridtolerance="10"
   objecttolerance="10"
   borderopacity="1"
   bordercolor="#666666"
   pagecolor="#ffffff" />
















<path
   d="M 41.861328 0 C 18.670328 0 4.7369516e-15 18.670328 0 41.861328 L 0 258.14062 C 0 281.33162 18.670328 300.00195 41.861328 300.00195 L 258.14062 300.00195 C 281.33162 300.00195 300.00195 281.33163 300.00195 258.14062 L 300.00195 41.861328 C 300.00195 18.670328 281.33163 4.7369516e-15 258.14062 0 L 41.861328 0 z M 151.375 39.570312 C 178.03516 39.570313 198.44532 46.699219 212.60547 60.957031 C 226.76563 75.117188 234.87109 93.134764 236.92188 115.00977 L 192.97656 115.00977 C 192 102.31445 188.43554 92.597656 182.2832 85.859375 C 176.22852 79.023438 165.92579 75.605469 151.375 75.605469 C 122.85938 75.605469 108.21094 96.650388 107.42969 138.74023 L 107.42969 156.31836 C 107.42969 178.38867 110.75 194.99023 117.39062 206.12305 C 124.12891 217.25586 135.31055 222.82227 150.93555 222.82227 C 164.80273 222.82227 174.95898 219.69727 181.4043 213.44727 C 187.94726 207.09961 191.75586 197.57813 192.83008 184.88281 L 236.77539 184.88281 C 235.31055 206.5625 227.15625 224.33593 212.3125 238.20312 C 197.56641 251.97265 177.10742 258.85742 150.93555 258.85742 C 123.5918 258.85742 102.0586 249.67773 86.335938 231.31836 C 70.613281 212.86133 62.751953 187.86133 62.751953 156.31836 L 62.751953 142.40234 C 62.751953 110.85938 70.808594 85.859375 86.921875 67.402344 C 103.03516 48.847656 124.51953 39.570313 151.375 39.570312 z "
   style="stroke-width:16.316"
   id="path1028" /><text
   id="text1030"
   xml:space="preserve"
   style="fill:black;font-family:sans-serif;font-size:40px;line-height:1.25;shape-inside:url(#rect1107);white-space:pre;" /><g
   style="font-style:normal;font-weight:normal;font-size:300px;line-height:1.25;font-family:sans-serif;fill:#ffffff;fill-opacity:1;stroke:none"
   id="text1078"
   aria-label="C" /></svg>
