<svg version="1.1" viewBox="0 0 300 300" xml:space="preserve" xmlns="http://www.w3.org/2000/svg">
















<path d="m41.861 0c-23.191 0-41.861 18.67-41.861 41.861v216.28c0 23.191 18.67 41.861 41.861 41.861h216.28c23.191 0 41.861-18.67 41.861-41.861v-216.28c0-23.191-18.67-41.861-41.861-41.861h-216.28zm110.26 43.119c26.607 0 46.257 6.3932 58.949 19.18s20.167 29.146 22.424 49.078h-41.18c-1.5983-10.342-5.3115-18.615-11.141-24.82-5.8291-6.2052-15.137-9.3086-27.924-9.3086-27.735 0-42.45 19.18-44.143 57.539l-0.14063 20.168c0 21.624 3.9967 37.889 11.988 48.795 8.0856 10.906 20.214 16.359 36.385 16.359 10.154-1e-5 17.769-1.1283 22.846-3.3848 5.077-2.3505 8.7436-4.6071 11-6.7695v-35.398h-38.359v-31.025h80.809v81.938c-4.889 5.8291-13.585 12.081-26.09 18.756-12.41 6.6753-29.899 10.014-52.463 10.014-26.607 0-48.137-8.6033-64.59-25.809-16.359-17.299-24.539-41.79-24.539-73.475v-12.27c0-31.684 7.8517-56.177 23.553-73.477 15.701-17.393 36.572-26.09 62.615-26.09z" style="stroke-width:16.316"/><text style="fill:black;font-family:sans-serif;font-size:40px;line-height:1.25;shape-inside:url(#rect1107);white-space:pre" xml:space="preserve"/></svg>
