<svg version="1.1" viewBox="0 0 300 300" xml:space="preserve" xmlns="http://www.w3.org/2000/svg">
















<path d="m41.861 0c-23.191 0-41.861 18.67-41.861 41.861v216.28c0 23.191 18.67 41.861 41.861 41.861h216.28c23.191 0 41.861-18.67 41.861-41.861v-216.28c0-23.191-18.67-41.861-41.861-41.861h-216.28zm38.072 46.727h76.436c23.599 1e-6 42.122 5.3115 55.566 15.936 13.539 10.53 20.307 25.901 20.307 46.115 0 14.855-3.2898 26.843-9.8711 35.963-6.5813 9.1198-15.513 16.218-26.795 21.295l44.424 84.053v1.9746h-45.553l-38.359-75.309h-33.705v75.309h-42.449v-205.34zm42.449 34.27v61.629h33.986c11.094 0 19.416-2.7732 24.963-8.3203 5.6411-5.6411 8.4609-13.069 8.4609-22.283 0-9.4958-2.7266-17.017-8.1797-22.564-5.4531-5.6411-13.868-8.4609-25.244-8.4609h-33.986z" style="stroke-width:16.316"/></svg>
