<svg version="1.1" viewBox="0 0 300 300" xml:space="preserve" xmlns="http://www.w3.org/2000/svg">
















<path d="m41.861 0c-23.191 0-41.861 18.67-41.861 41.861v216.28c0 23.191 18.67 41.861 41.861 41.861h216.28c23.191 0 41.861-18.67 41.861-41.861v-216.28c0-23.191-18.67-41.861-41.861-41.861h-216.28zm34.418 48.225h72.066c23.787 0 42.401 4.5599 55.846 13.68 13.445 9.1198 20.168 23.27 20.168 42.449-1e-5 9.3078-2.3518 17.864-7.0527 25.668-4.7009 7.8035-12.127 13.727-22.281 17.77 12.034 3.0086 20.684 8.8366 25.949 17.486s7.8965 17.911 7.8965 27.783c0 19.744-6.298 34.738-18.896 44.986-12.598 10.154-30.557 15.326-53.873 15.514h-79.822v-205.34zm42.449 34.27v51.617h29.617c22.376 0 33.564-8.4615 33.564-25.385 0-17.111-10.718-25.856-32.154-26.232h-31.027zm0 81.514v55.424h36.104c10.812 0 18.804-2.5382 23.975-7.6152 5.171-5.077 7.7559-11.47 7.7559-19.18 0-18.428-9.3063-27.971-27.922-28.629h-39.912z" style="stroke-width:16.316"/><text style="fill:black;font-family:sans-serif;font-size:40px;line-height:1.25;shape-inside:url(#rect1107);white-space:pre" xml:space="preserve"/></svg>
