<?xml version="1.0" encoding="iso-8859-1"?>
<!-- Generator: Adobe Illustrator 18.1.1, SVG Export Plug-In . SVG Version: 6.00 Build 0)  -->
<svg version="1.1" id="Capa_1" xmlns="http://www.w3.org/2000/svg" xmlns:xlink="http://www.w3.org/1999/xlink" x="0px" y="0px"
	 viewBox="0 0 13.239 13.239" style="enable-background:new 0 0 13.239 13.239;" xml:space="preserve">
<g>
	<path style="fill:#ffffffb3;" d="M12.074,0H1.165C0.523,0,0,0.522,0,1.164v10.909c0,0.643,0.522,1.165,1.165,1.165h10.909
		c0.643,0,1.165-0.522,1.165-1.165V1.164C13.239,0.522,12.717,0,12.074,0z M10.64,10.405c0,0.367-0.338,0.665-0.756,0.665H8.562
		V7.317H7.915v3.754H6.944V7.317H6.297v3.754H5.272V7.317H4.625v3.754H3.354c-0.417,0-0.756-0.298-0.756-0.665V4.661
		c0-0.367,0.338-0.665,0.756-0.665h0.928v-1.45c0-0.209,0.193-0.379,0.431-0.379H8.44c0.237,0,0.43,0.17,0.43,0.379v1.45h1.014
		c0.418,0,0.756,0.298,0.756,0.665C10.64,4.661,10.64,10.405,10.64,10.405z"/>
</g>
<g>
</g>
<g>
</g>
<g>
</g>
<g>
</g>
<g>
</g>
<g>
</g>
<g>
</g>
<g>
</g>
<g>
</g>
<g>
</g>
<g>
</g>
<g>
</g>
<g>
</g>
<g>
</g>
<g>
</g>
</svg>
