<?xml version="1.0" encoding="iso-8859-1"?>
<!-- Generator: Adobe Illustrator 19.0.0, SVG Export Plug-In . SVG Version: 6.00 Build 0)  -->
<svg version="1.1" id="Layer_1" xmlns="http://www.w3.org/2000/svg" xmlns:xlink="http://www.w3.org/1999/xlink" x="0px" y="0px"
	 viewBox="0 0 329.942 329.942" style="enable-background:new 0 0 329.942 329.942;" xml:space="preserve">
<path id="XMLID_16_" d="M329.208,126.666c-1.765-5.431-6.459-9.389-12.109-10.209l-95.822-13.922l-42.854-86.837
	c-2.527-5.12-7.742-8.362-13.451-8.362c-5.71,0-10.925,3.242-13.451,8.362l-42.851,86.836l-95.825,13.922
	c-5.65,0.821-10.345,4.779-12.109,10.209c-1.764,5.431-0.293,11.392,3.796,15.377l69.339,67.582L57.496,305.07
	c-0.965,5.628,1.348,11.315,5.967,14.671c2.613,1.899,5.708,2.865,8.818,2.865c2.387,0,4.784-0.569,6.979-1.723l85.711-45.059
	l85.71,45.059c2.208,1.161,4.626,1.714,7.021,1.723c8.275-0.012,14.979-6.723,14.979-15c0-1.152-0.13-2.275-0.376-3.352
	l-16.233-94.629l69.339-67.583C329.501,138.057,330.972,132.096,329.208,126.666z"/>
<g>
</g>
<g>
</g>
<g>
</g>
<g>
</g>
<g>
</g>
<g>
</g>
<g>
</g>
<g>
</g>
<g>
</g>
<g>
</g>
<g>
</g>
<g>
</g>
<g>
</g>
<g>
</g>
<g>
</g>
</svg>
