<?xml version="1.0" encoding="iso-8859-1"?>
<!-- Generator: Adobe Illustrator 17.1.0, SVG Export Plug-In . SVG Version: 6.00 Build 0)  -->
<!DOCTYPE svg PUBLIC "-//W3C//DTD SVG 1.1//EN" "http://www.w3.org/Graphics/SVG/1.1/DTD/svg11.dtd">
<svg version="1.1" id="Capa_1" xmlns="http://www.w3.org/2000/svg" xmlns:xlink="http://www.w3.org/1999/xlink" x="0px" y="0px"
	 viewBox="0 0 317 317" style="enable-background:new 0 0 317 317;" xml:space="preserve">
<path d="M302,13H15C6.729,13,0,19.729,0,28v261c0,8.272,6.729,15,15,15h287c8.271,0,15-6.728,15-15V28C317,19.729,310.271,13,302,13
	z M201.668,176.639c-0.853,1.638-2.607,2.361-4.812,2.361H174.98c-0.542,0-0.98,0.891-0.98,1.433v79.01
	c0,3.859-3.16,6.558-7.02,6.558h-17.95c-3.86,0-7.031-2.698-7.031-6.558v-79.007c0-0.542-0.427-1.436-0.969-1.436H119.16
	c-2.206,0-3.96-0.722-4.812-2.359c-0.853-1.639-0.615-3.504,0.651-5.311l38.258-54.554c1.171-1.671,2.903-2.603,4.753-2.603
	c1.849,0,3.581,0.973,4.752,2.644l38.256,54.503C202.284,173.127,202.52,175.001,201.668,176.639z M254,81H62
	c-8.284,0-15-6.716-15-15s6.716-15,15-15h192c8.284,0,15,6.716,15,15S262.284,81,254,81z"/>
<g>
</g>
<g>
</g>
<g>
</g>
<g>
</g>
<g>
</g>
<g>
</g>
<g>
</g>
<g>
</g>
<g>
</g>
<g>
</g>
<g>
</g>
<g>
</g>
<g>
</g>
<g>
</g>
<g>
</g>
</svg>
