<?xml version="1.0" encoding="iso-8859-1"?>
<!-- Generator: Adobe Illustrator 19.0.0, SVG Export Plug-In . SVG Version: 6.00 Build 0)  -->
<svg version="1.1" id="Layer_1" xmlns="http://www.w3.org/2000/svg" xmlns:xlink="http://www.w3.org/1999/xlink" x="16px" y="16px"
	 viewBox="0 0 512 512" style="enable-background:new 0 0 512 512;" xml:space="preserve">
<g>
	<g>
		<path d="M503.467,320H8.533C3.814,320,0,323.823,0,328.533v102.4c0,4.71,3.814,8.533,8.533,8.533h494.933
			c4.719,0,8.533-3.823,8.533-8.533v-102.4C512,323.823,508.186,320,503.467,320z"/>
	</g>
</g>
<g>
	<g>
		<path d="M503.467,217.6H8.533C3.814,217.6,0,221.423,0,226.133V294.4c0,4.71,3.814,8.533,8.533,8.533h494.933
			c4.719,0,8.533-3.823,8.533-8.533v-68.267C512,221.423,508.186,217.6,503.467,217.6z"/>
	</g>
</g>
<g>
	<g>
		<path d="M503.467,132.267H8.533C3.814,132.267,0,136.09,0,140.8V192c0,4.71,3.814,8.533,8.533,8.533h494.933
			c4.719,0,8.533-3.823,8.533-8.533v-51.2C512,136.09,508.186,132.267,503.467,132.267z"/>
	</g>
</g>
<g>
	<g>
		<path d="M503.467,72.533H8.533C3.814,72.533,0,76.356,0,81.067v25.6c0,4.71,3.814,8.533,8.533,8.533h494.933
			c4.719,0,8.533-3.823,8.533-8.533v-25.6C512,76.356,508.186,72.533,503.467,72.533z"/>
	</g>
</g>
<g>
</g>
<g>
</g>
<g>
</g>
<g>
</g>
<g>
</g>
<g>
</g>
<g>
</g>
<g>
</g>
<g>
</g>
<g>
</g>
<g>
</g>
<g>
</g>
<g>
</g>
<g>
</g>
<g>
</g>
</svg>
