<svg style="enable-background:new 0 0 296.869 296.869" version="1.1" viewBox="0 0 296.87 296.87" xml:space="preserve" xmlns="http://www.w3.org/2000/svg">

	<path d="m291.06 79.663-70.39-54.57c-4.525-3.509-10.651-4.135-15.791-1.615-5.141 2.52-8.399 7.745-8.399 13.47v14.807h-70.701c-8.284 0-15 6.716-15 15v49.527c0 8.284 6.716 15 15 15h70.701v14.808c0 5.725 3.259 10.95 8.399 13.47 2.094 1.026 4.352 1.53 6.599 1.53 3.268 0 6.512-1.066 9.192-3.145l70.39-54.571c3.665-2.841 5.81-7.218 5.81-11.854-1e-3 -4.639-2.145-9.016-5.81-11.857z"/>
	<path d="m171.09 165.59h-70.701v-14.807c0-5.725-3.259-10.95-8.399-13.47s-11.268-1.895-15.791 1.615l-70.389 54.571c-3.665 2.841-5.81 7.218-5.81 11.855s2.145 9.014 5.81 11.854l70.389 54.571c2.681 2.079 5.925 3.146 9.192 3.146 2.246 0 4.505-0.504 6.599-1.53 5.141-2.52 8.399-7.745 8.399-13.47v-14.808h70.701c8.284 0 15-6.716 15-15v-49.527c0-8.284-6.716-15-15-15z"/>
















</svg>
