<?xml version="1.0" encoding="iso-8859-1"?>
<!-- Generator: Adobe Illustrator 19.0.0, SVG Export Plug-In . SVG Version: 6.00 Build 0)  -->
<svg version="1.1" id="Capa_1" xmlns="http://www.w3.org/2000/svg" xmlns:xlink="http://www.w3.org/1999/xlink" x="0px" y="0px"
	 viewBox="0 0 490.2 490.2" style="enable-background:new 0 0 490.2 490.2;" xml:space="preserve">
<g>
	<g>
		<path d="M217.1,367.5v-94.4h-94.5v-56h94.5v-94.5h56v94.5h94.5v56h-94.5v94.5h-56V367.5z M490.2,169V28c0-15.4-12.5-28-28-28h-141
			v55.9h113v113h56V169z M490.2,462.2v-141h-55.9v113h-113v55.9h141C477.6,490.2,490.2,477.6,490.2,462.2z M28,490.2h141v-55.9H56
			v-113H0v141C0,477.6,12.6,490.2,28,490.2z M0,28v141h55.9V56h113V0h-141C12.6,0,0,12.6,0,28z"/>
	</g>
</g>
<g>
</g>
<g>
</g>
<g>
</g>
<g>
</g>
<g>
</g>
<g>
</g>
<g>
</g>
<g>
</g>
<g>
</g>
<g>
</g>
<g>
</g>
<g>
</g>
<g>
</g>
<g>
</g>
<g>
</g>
</svg>
