<?xml version="1.0" encoding="iso-8859-1"?>
<!-- Generator: Adobe Illustrator 16.0.0, SVG Export Plug-In . SVG Version: 6.00 Build 0)  -->
<!DOCTYPE svg PUBLIC "-//W3C//DTD SVG 1.1//EN" "http://www.w3.org/Graphics/SVG/1.1/DTD/svg11.dtd">
<svg version="1.1" id="Capa_1" xmlns="http://www.w3.org/2000/svg" xmlns:xlink="http://www.w3.org/1999/xlink" x="0px" y="0px"
	 width="16px" height="16px" viewBox="0 0 45.795 45.795" style="enable-background:new 0 0 45.795 45.795;"
	 xml:space="preserve">
<g>
	<path d="M43.502,24.844h0.309c1.096,0,1.983-0.892,1.983-1.986s-0.89-1.987-1.983-1.987h-0.22l1.604-1.573
		c0.783-0.764,0.801-2.025,0.035-2.811c-0.766-0.784-2.021-0.793-2.805-0.028l-4.52,4.412H35.04
		c-0.32-1.943-1.081-3.713-2.178-5.226l1.994-2.018h6.387c1.097,0,1.984-0.892,1.984-1.986c0-1.096-0.889-1.987-1.984-1.987h-2.42
		l0.219-0.203c0.773-0.774,0.773-2.023,0-2.797c-0.773-0.775-2.029-0.771-2.807,0.004l-0.153,0.156l0.03-2.227
		c0.015-1.096-0.862-2-1.959-2c-0.008,0-0.018,0-0.026,0c-1.083,0-1.968,0.862-1.981,1.948l-0.084,6.306l-2,2.007
		c-1.521-1.097-3.285-1.856-5.228-2.167V7.903l4.508-4.518c0.775-0.773,0.771-2.03-0.004-2.805s-2.024-0.774-2.8,0l-1.704,1.711
		V1.984C24.833,0.89,23.942,0,22.847,0S20.86,0.89,20.86,1.984v0.219L19.292,0.6c-0.766-0.784-2.023-0.802-2.808-0.036
		c-0.785,0.765-0.798,2.021-0.033,2.806L20.86,7.89v2.791c-1.943,0.307-3.661,1.044-5.168,2.11l-1.956-1.955L13.65,4.535
		c-0.014-1.086-0.9-1.948-1.983-1.948c-0.01,0-0.019,0-0.027,0c-1.096,0-1.972,0.905-1.958,2l0.03,2.233L9.558,6.664
		C8.783,5.89,7.527,5.889,6.752,6.663c-0.774,0.774-0.774,2.014,0,2.789l0.218,0.201H4.552c-1.097,0-1.984,0.892-1.984,1.987
		c0,1.095,0.888,1.986,1.984,1.986h6.386l1.919,1.942c-1.125,1.529-1.906,3.356-2.231,5.3H7.889l-4.52-4.415
		c-0.784-0.765-2.04-0.753-2.805,0.031c-0.764,0.786-0.748,2.05,0.037,2.814l1.604,1.57h-0.22C0.89,20.87,0,21.763,0,22.857
		c0,1.096,0.889,1.986,1.984,1.986h0.308L0.582,26.54c-0.774,0.775-0.774,2.024,0,2.798c0.388,0.389,0.896,0.578,1.403,0.578
		c0.507,0,1.015-0.182,1.402-0.568l4.516-4.505h2.7c0.306,1.943,1.068,3.747,2.177,5.288l-1.944,1.938l-6.31,0.078
		c-1.096,0.015-1.973,0.913-1.958,2.008c0.016,1.096,0.922,1.96,2.01,1.958l2.237-0.03l-0.154,0.155
		c-0.775,0.773-0.775,2.031,0,2.805c0.387,0.388,0.895,0.581,1.402,0.581s0.994-0.192,1.382-0.581l0.197-0.218v2.419
		c0,1.096,0.892,1.984,1.987,1.984c1.095,0,1.987-0.889,1.987-1.984v-6.387l1.952-1.931c1.529,1.108,3.348,1.875,5.291,2.188v2.791
		l-4.41,4.521c-0.765,0.785-0.751,2.041,0.034,2.807c0.784,0.765,2.042,0.747,2.809-0.037l1.567-1.604v0.22
		c0,1.096,0.891,1.983,1.986,1.983s1.987-0.888,1.987-1.983v-0.309l1.702,1.711c0.387,0.388,0.891,0.581,1.398,0.581
		c0.506,0,1.012-0.193,1.399-0.581c0.774-0.774,0.782-2.03,0.008-2.806l-4.509-4.517v-2.776c1.941-0.318,3.799-1.105,5.345-2.243
		l1.986,1.983v6.388c0,1.096,0.892,1.984,1.987,1.984c1.095,0,1.986-0.889,1.986-1.984v-2.42l0.204,0.218
		c0.388,0.387,0.888,0.581,1.396,0.581c0.509,0,1.013-0.193,1.399-0.581c0.775-0.774,0.773-2.031-0.002-2.806l-0.155-0.136
		l2.236,0.048c0.01,0,0.018,0,0.027,0c1.082,0,1.968-0.891,1.982-1.978c0.014-1.096-0.863-2.005-1.959-2.02l-6.31-0.087
		l-2.021-2.007c1.08-1.523,1.821-3.36,2.121-5.216h2.832l4.516,4.502c0.388,0.389,0.896,0.574,1.402,0.574
		c0.508,0,1.016-0.197,1.402-0.585c0.773-0.773,0.773-2.018,0-2.792L43.502,24.844z"/>
</g>
<g>
</g>
<g>
</g>
<g>
</g>
<g>
</g>
<g>
</g>
<g>
</g>
<g>
</g>
<g>
</g>
<g>
</g>
<g>
</g>
<g>
</g>
<g>
</g>
<g>
</g>
<g>
</g>
<g>
</g>
</svg>
