<?xml version="1.0" encoding="iso-8859-1"?>
<!-- Generator: Adobe Illustrator 16.0.0, SVG Export Plug-In . SVG Version: 6.00 Build 0)  -->
<!DOCTYPE svg PUBLIC "-//W3C//DTD SVG 1.1//EN" "http://www.w3.org/Graphics/SVG/1.1/DTD/svg11.dtd">
<svg version="1.1" id="Capa_1" xmlns="http://www.w3.org/2000/svg" xmlns:xlink="http://www.w3.org/1999/xlink" x="0px" y="0px"
	 width="16px" height="16px" viewBox="0 0 28.666 28.666" style="enable-background:new 0 0 28.666 28.666;"
	 xml:space="preserve">
<g>
	<path d="M14.333,0C6.417,0,0,6.417,0,14.333s6.417,14.333,14.333,14.333s14.333-6.417,14.333-14.333S22.249,0,14.333,0z
		 M14.334,3.5c2.047,0,3.707,1.66,3.707,3.708s-1.66,3.709-3.707,3.709c-2.048,0-3.709-1.661-3.709-3.709S12.286,3.499,14.334,3.5z
		 M7.209,18.041c-2.049,0-3.709-1.66-3.709-3.707c0-2.048,1.66-3.709,3.709-3.709c2.047,0,3.708,1.661,3.708,3.709
		C10.917,16.38,9.256,18.041,7.209,18.041z M14.334,25.166c-2.048,0-3.709-1.66-3.709-3.709c0-2.047,1.661-3.708,3.709-3.708
		c2.047,0,3.707,1.661,3.707,3.708C18.041,23.505,16.381,25.166,14.334,25.166z M21.458,18.041c-2.049,0-3.709-1.66-3.709-3.707
		c0-2.048,1.66-3.709,3.709-3.709c2.048,0,3.709,1.661,3.708,3.709C25.166,16.38,23.506,18.041,21.458,18.041z"/>
</g>
<g>
</g>
<g>
</g>
<g>
</g>
<g>
</g>
<g>
</g>
<g>
</g>
<g>
</g>
<g>
</g>
<g>
</g>
<g>
</g>
<g>
</g>
<g>
</g>
<g>
</g>
<g>
</g>
<g>
</g>
</svg>
