<?xml version="1.0" encoding="iso-8859-1"?>
<!-- Generator: Adobe Illustrator 19.0.0, SVG Export Plug-In . SVG Version: 6.00 Build 0)  -->
<svg version="1.1" id="Layer_1" xmlns="http://www.w3.org/2000/svg" xmlns:xlink="http://www.w3.org/1999/xlink" x="0px" y="0px"
	 viewBox="0 0 511.93 511.93" style="enable-background:new 0 0 511.93 511.93;" xml:space="preserve">
<circle style="fill:#E07188;" cx="154.242" cy="167.916" r="154.242"/>
<circle style="fill:#95D5A7;" cx="256.018" cy="344.073" r="154.242"/>
<path style="fill:#80CB93;" d="M365.05,234.975c-17.33-17.32-37.757-29.645-59.497-36.998l0,0
	c-6.628,33.234-24.101,63.518-49.554,85.89c-0.012-0.011-0.024-0.021-0.034-0.032v214.477
	c39.506,0.013,79.016-15.056,109.149-45.207C425.332,392.853,425.304,295.194,365.05,234.975z"/>
<circle style="fill:#B4D8F1;" cx="357.688" cy="167.857" r="154.242"/>
<path style="fill:#F8E99B;" d="M194.21,316.893c23.664-6.349,44.553-17.877,61.789-33.027
	c-25.468-22.358-42.958-52.63-49.607-85.862c-21.733,7.366-42.153,19.703-59.473,37.032c-22.414,22.426-36.474,50.035-42.196,78.967
	C132.645,323.498,163.586,325.108,194.21,316.893z"/>
<path style="fill:#EBAFD1;" d="M208.686,127.98c-6.335,23.669-6.795,47.523-2.293,70.026c32.097-10.876,67.059-10.887,99.16-0.028
	c4.488-22.505,4.015-46.358-2.334-70.022c-8.215-30.624-25.094-56.606-47.289-76.026C233.748,71.362,216.884,97.352,208.686,127.98z
	"/>
<path style="fill:#BEFCFD;" d="M305.554,197.977c-6.628,33.234-24.101,63.518-49.554,85.89
	c17.244,15.139,38.139,26.655,61.807,32.99c30.628,8.197,61.569,6.57,89.485-2.941c-5.738-28.928-19.815-56.529-42.242-78.941
	C347.72,217.655,327.293,205.33,305.554,197.977z"/>
<path style="fill:#FFFFFF;" d="M206.393,198.006c6.649,33.231,24.139,63.504,49.607,85.862
	c25.454-22.372,42.927-52.656,49.554-85.89C273.451,187.118,238.489,187.129,206.393,198.006z"/>
<path style="fill:#E592BF;" d="M287.219,193.013c0.009,0.002,0.019,0.004,0.027,0.006c6.178,1.272,12.292,2.923,18.307,4.958
	c4.488-22.505,4.015-46.358-2.334-70.022c-8.21-30.608-25.077-56.577-47.255-75.995v137.87
	C266.442,189.826,276.916,190.895,287.219,193.013z"/>
<g>
	<path style="fill:#95D5A7;" d="M287.219,193.013c-10.303-2.118-20.778-3.187-31.254-3.183v0.011
		C266.44,189.838,276.916,190.895,287.219,193.013z"/>
	<path style="fill:#95D5A7;" d="M305.554,197.977L305.554,197.977c-6.014-2.035-12.129-3.686-18.307-4.958
		C293.425,194.289,299.538,195.943,305.554,197.977z"/>
</g>
<g>
	<path style="fill:#F8F8F9;" d="M287.219,193.013c0.009,0.002,0.019,0.004,0.027,0.006
		C287.237,193.016,287.228,193.015,287.219,193.013z"/>
	<path style="fill:#F8F8F9;" d="M287.219,193.013c-10.303-2.118-20.779-3.175-31.254-3.171v93.995
		c0.012,0.011,0.024,0.021,0.034,0.032c25.454-22.372,42.927-52.656,49.554-85.89c-6.014-2.034-12.129-3.686-18.307-4.958
		C287.237,193.016,287.228,193.015,287.219,193.013z"/>
</g>
<g>
</g>
<g>
</g>
<g>
</g>
<g>
</g>
<g>
</g>
<g>
</g>
<g>
</g>
<g>
</g>
<g>
</g>
<g>
</g>
<g>
</g>
<g>
</g>
<g>
</g>
<g>
</g>
<g>
</g>
</svg>
