<?xml version="1.0" encoding="iso-8859-1"?>
<!-- Generator: Adobe Illustrator 16.0.0, SVG Export Plug-In . SVG Version: 6.00 Build 0)  -->
<!DOCTYPE svg PUBLIC "-//W3C//DTD SVG 1.1//EN" "http://www.w3.org/Graphics/SVG/1.1/DTD/svg11.dtd">
<svg version="1.1" id="Capa_1" xmlns="http://www.w3.org/2000/svg" xmlns:xlink="http://www.w3.org/1999/xlink" x="0px" y="0px"
	 width="16px" height="16px" viewBox="0 0 416.723 416.723" style="enable-background:new 0 0 416.723 416.723;"
	 xml:space="preserve">
<g>
	<g>
		<g>
			<path d="M88.57,64.705H16.002C7.164,64.705,0,71.871,0,80.705v255.312c0,8.832,7.164,16,16.002,16H88.57c8.834,0,16-7.168,16-16
				V80.705C104.57,71.871,97.404,64.705,88.57,64.705z M72.084,261.92H32.486v-24.381h39.598V261.92L72.084,261.92z M72.084,218.68
				H32.486V107.097h39.598V218.68L72.084,218.68z"/>
			<path d="M212.57,64.705h-72.564c-8.838,0-16,7.166-16,16v255.312c0,8.832,7.162,16,16,16h72.564c8.838,0,16-7.168,16-16V80.705
				C228.57,71.871,221.408,64.705,212.57,64.705z M196.086,261.92H156.49v-24.381h39.596V261.92z M196.086,218.68H156.49V107.097
				h39.596V218.68z"/>
			<path d="M416.15,313.047L350.072,76.61c-2.285-8.185-10.775-12.964-18.959-10.679l-67.205,18.782
				c-8.188,2.288-12.969,10.778-10.678,18.959l66.082,236.438c2.282,8.185,10.772,12.963,18.954,10.679l67.207-18.779
				C413.66,329.719,418.439,321.229,416.15,313.047z M319.025,223.049l-28.882-103.338l36.675-10.25l28.879,103.338L319.025,223.049
				z M330.215,263.084l-6.307-22.574l36.674-10.25l6.307,22.578L330.215,263.084z"/>
		</g>
	</g>
</g>
<g>
</g>
<g>
</g>
<g>
</g>
<g>
</g>
<g>
</g>
<g>
</g>
<g>
</g>
<g>
</g>
<g>
</g>
<g>
</g>
<g>
</g>
<g>
</g>
<g>
</g>
<g>
</g>
<g>
</g>
</svg>
