<?xml version="1.0" encoding="iso-8859-1"?>
<!-- Generator: Adobe Illustrator 18.0.0, SVG Export Plug-In . SVG Version: 6.00 Build 0)  -->
<!DOCTYPE svg PUBLIC "-//W3C//DTD SVG 1.1//EN" "http://www.w3.org/Graphics/SVG/1.1/DTD/svg11.dtd">
<svg version="1.1" id="Capa_1" xmlns="http://www.w3.org/2000/svg" xmlns:xlink="http://www.w3.org/1999/xlink" x="0px" y="0px"
	 viewBox="0 0 296.869 296.869" style="enable-background:new 0 0 296.869 296.869;" xml:space="preserve">
<g>
	<path d="M291.06,79.663l-70.39-54.57c-4.525-3.509-10.651-4.135-15.791-1.615c-5.141,2.52-8.399,7.745-8.399,13.47v14.807h-70.701
		c-8.284,0-15,6.716-15,15v49.527c0,8.284,6.716,15,15,15h70.701v14.808c0,5.725,3.259,10.95,8.399,13.47
		c2.094,1.026,4.352,1.53,6.599,1.53c3.268,0,6.512-1.066,9.192-3.145l70.39-54.571c3.665-2.841,5.81-7.218,5.81-11.854
		C296.869,86.881,294.725,82.504,291.06,79.663z"/>
	<path d="M171.09,165.587h-70.701V150.78c0-5.725-3.259-10.95-8.399-13.47c-5.14-2.52-11.268-1.895-15.791,1.615L5.81,193.496
		C2.145,196.337,0,200.714,0,205.351c0,4.637,2.145,9.014,5.81,11.854l70.389,54.571c2.681,2.079,5.925,3.146,9.192,3.146
		c2.246,0,4.505-0.504,6.599-1.53c5.141-2.52,8.399-7.745,8.399-13.47v-14.808h70.701c8.284,0,15-6.716,15-15v-49.527
		C186.09,172.303,179.374,165.587,171.09,165.587z"/>
</g>
<g>
</g>
<g>
</g>
<g>
</g>
<g>
</g>
<g>
</g>
<g>
</g>
<g>
</g>
<g>
</g>
<g>
</g>
<g>
</g>
<g>
</g>
<g>
</g>
<g>
</g>
<g>
</g>
<g>
</g>
</svg>
