<?xml version="1.0" encoding="iso-8859-1"?>
<!-- Generator: Adobe Illustrator 16.0.0, SVG Export Plug-In . SVG Version: 6.00 Build 0)  -->
<!DOCTYPE svg PUBLIC "-//W3C//DTD SVG 1.1//EN" "http://www.w3.org/Graphics/SVG/1.1/DTD/svg11.dtd">
<svg version="1.1" id="Capa_1" xmlns="http://www.w3.org/2000/svg" xmlns:xlink="http://www.w3.org/1999/xlink" x="0px" y="0px"
	 width="16px" height="16px" viewBox="0 0 429.7 429.7" style="enable-background:new 0 0 429.7 429.7;" xml:space="preserve"
	>
<g>
	<g>
		<path d="M233.137,234.36L202.198,265.3l-37.799-37.8l30.939-30.938c6.856-6.855,6.856-18.012,0-24.867
			c-6.855-6.856-18.011-6.856-24.867,0l-30.94,30.939l-15.539-15.538c-4.12-4.122-10.801-4.121-14.921,0L86.625,209.54
			c-4.12,4.12-4.12,10.801,0,14.921l3.35,3.351l-50.72,50.718c-2.361,2.362-3.465,5.702-2.976,9.005l7.816,52.813L3.09,381.353
			c-4.12,4.119-4.12,10.8,0,14.92l30.337,30.336c4.12,4.121,10.8,4.121,14.92,0l41.006-41.006l52.813,7.817
			c3.303,0.488,6.644-0.614,9.004-2.977l50.719-50.719l3.35,3.35c4.12,4.119,10.801,4.119,14.921,0l22.445-22.447
			c4.121-4.117,4.121-10.801,0-14.92l-15.539-15.539l30.939-30.939c6.855-6.856,6.855-18.012,0-24.868
			C251.148,227.505,239.994,227.505,233.137,234.36z"/>
		<path d="M426.609,33.428L396.273,3.089c-4.119-4.118-10.801-4.118-14.92,0l-41.006,41.007l-52.814-7.817
			c-3.303-0.488-6.643,0.615-9.004,2.978l-50.719,50.719l-3.35-3.351c-4.119-4.119-10.8-4.121-14.921,0l-22.446,22.446
			c-4.12,4.12-4.12,10.8,0,14.921l118.613,118.613c4.119,4.119,10.801,4.119,14.922,0l22.445-22.447
			c4.119-4.12,4.119-10.801,0-14.92l-3.35-3.35l50.719-50.72c2.361-2.36,3.465-5.699,2.977-9.004l-7.816-52.812l41.006-41.006
			C430.73,44.227,430.73,37.545,426.609,33.428z"/>
	</g>
</g>
<g>
</g>
<g>
</g>
<g>
</g>
<g>
</g>
<g>
</g>
<g>
</g>
<g>
</g>
<g>
</g>
<g>
</g>
<g>
</g>
<g>
</g>
<g>
</g>
<g>
</g>
<g>
</g>
<g>
</g>
</svg>
