<?xml version="1.0" encoding="iso-8859-1"?>
<!-- Generator: Adobe Illustrator 18.1.1, SVG Export Plug-In . SVG Version: 6.00 Build 0)  -->
<svg version="1.1" id="Capa_1" xmlns="http://www.w3.org/2000/svg" xmlns:xlink="http://www.w3.org/1999/xlink" x="0px" y="0px"
	 viewBox="0 0 17.12 17.12" style="enable-background:new 0 0 17.12 17.12;" xml:space="preserve">
<g>
	<g>
		<g>
			<path d="M8.661,0.001c0.006,0,0.01,0,0.01,0c0.007,0,0.007,0,0.011,0c0.002,0,0.007,0,0.009,0
				c0,0,0,0,0.004,0c0.019-0.002,0.027,0,0.039,0c2.213,0,4.367,0.876,5.955,2.42l1.758-1.776c0.081-0.084,0.209-0.11,0.314-0.065
				c0.109,0.044,0.186,0.152,0.186,0.271l-0.294,6.066h-5.699c-0.003,0-0.011,0-0.016,0c-0.158,0-0.291-0.131-0.291-0.296
				c0-0.106,0.059-0.201,0.146-0.252l1.73-1.751c-1.026-0.988-2.36-1.529-3.832-1.529c-2.993,0.017-5.433,2.47-5.433,5.51
				c0.023,2.978,2.457,5.4,5.481,5.422c1.972-0.106,3.83-1.278,4.719-3.221l2.803,1.293l-0.019,0.039
				c-1.92,3.713-4.946,5.277-8.192,4.944c-4.375-0.348-7.848-4.013-7.878-8.52C0.171,3.876,3.976,0.042,8.661,0.001z"/>
		</g>
	</g>
</g>
<g>
</g>
<g>
</g>
<g>
</g>
<g>
</g>
<g>
</g>
<g>
</g>
<g>
</g>
<g>
</g>
<g>
</g>
<g>
</g>
<g>
</g>
<g>
</g>
<g>
</g>
<g>
</g>
<g>
</g>
</svg>
