<?xml version="1.0" encoding="iso-8859-1"?>
<!-- Generator: Adobe Illustrator 19.0.0, SVG Export Plug-In . SVG Version: 6.00 Build 0)  -->
<svg version="1.1" id="Capa_1" xmlns="http://www.w3.org/2000/svg" xmlns:xlink="http://www.w3.org/1999/xlink" x="0px" y="0px"
	 viewBox="0 0 407 407" fill="#FFFFFFB3" style="enable-background:new 0 0 407 407;" xml:space="preserve">
<g id="XMLID_350_">
	<path id="XMLID_476_" d="M145.764,243.5L47.425,73.068C17.839,108.413,0,153.909,0,203.5c0,13.689,1.368,27.062,3.957,40H145.764z"
		/>
	<path id="XMLID_477_" d="M140.025,173.44L238.478,3.019C227.11,1.041,215.425,0,203.5,0c-51.423,0-98.444,19.182-134.308,50.754
		L140.025,173.44z"/>
	<path id="XMLID_478_" d="M197.795,133.5h196.798C373.431,75.912,326.939,30.456,268.689,10.707L197.795,133.5z"/>
	<path id="XMLID_479_" d="M266.975,233.56L168.513,403.98c11.371,1.979,23.059,3.02,34.987,3.02
		c51.423,0,98.444-19.182,134.308-50.754L266.975,233.56z"/>
	<path id="XMLID_481_" d="M209.206,273.5H12.407c21.162,57.588,67.654,103.044,125.903,122.793L209.206,273.5z"/>
	<path id="XMLID_482_" d="M261.235,163.5l98.339,170.432C389.161,298.587,407,253.091,407,203.5c0-13.689-1.368-27.062-3.957-40
		H261.235z"/>
</g>
<g>
</g>
<g>
</g>
<g>
</g>
<g>
</g>
<g>
</g>
<g>
</g>
<g>
</g>
<g>
</g>
<g>
</g>
<g>
</g>
<g>
</g>
<g>
</g>
<g>
</g>
<g>
</g>
<g>
</g>
</svg>
