<?xml version="1.0" encoding="UTF-8" standalone="no"?>
<svg
   xmlns:dc="http://purl.org/dc/elements/1.1/"
   xmlns:cc="http://creativecommons.org/ns#"
   xmlns:rdf="http://www.w3.org/1999/02/22-rdf-syntax-ns#"
   xmlns:svg="http://www.w3.org/2000/svg"
   xmlns="http://www.w3.org/2000/svg"
   xmlns:sodipodi="http://sodipodi.sourceforge.net/DTD/sodipodi-0.dtd"
   xmlns:inkscape="http://www.inkscape.org/namespaces/inkscape"
   inkscape:version="1.0 (4035a4fb49, 2020-05-01)"
   sodipodi:docname="tilt.svg"
   xml:space="preserve"
   style="enable-background:new 0 0 296.869 296.869;"
   viewBox="0 0 296.869 296.869"
   y="0px"
   x="0px"
   id="Capa_1"
   version="1.1"><metadata
   id="metadata981"><rdf:RDF><cc:Work
       rdf:about=""><dc:format>image/svg+xml</dc:format><dc:type
         rdf:resource="http://purl.org/dc/dcmitype/StillImage" /><dc:title></dc:title></cc:Work></rdf:RDF></metadata><defs
   id="defs979" /><sodipodi:namedview
   inkscape:current-layer="Capa_1"
   inkscape:window-maximized="1"
   inkscape:window-y="31"
   inkscape:window-x="0"
   inkscape:cy="84.445998"
   inkscape:cx="24.180569"
   inkscape:zoom="1.384449"
   showgrid="false"
   id="namedview977"
   inkscape:window-height="1021"
   inkscape:window-width="1920"
   inkscape:pageshadow="2"
   inkscape:pageopacity="0"
   guidetolerance="10"
   gridtolerance="10"
   objecttolerance="10"
   borderopacity="1"
   bordercolor="#666666"
   pagecolor="#ffffff" />
<g
   transform="rotate(90,148.435,148.43437)"
   id="g944">
	<path
   id="path940"
   d="m 291.06,79.663 -70.39,-54.57 c -4.525,-3.509 -10.651,-4.135 -15.791,-1.615 -5.141,2.52 -8.399,7.745 -8.399,13.47 v 14.807 h -70.701 c -8.284,0 -15,6.716 -15,15 v 49.527 c 0,8.284 6.716,15 15,15 h 70.701 v 14.808 c 0,5.725 3.259,10.95 8.399,13.47 2.094,1.026 4.352,1.53 6.599,1.53 3.268,0 6.512,-1.066 9.192,-3.145 l 70.39,-54.571 c 3.665,-2.841 5.81,-7.218 5.81,-11.854 -10e-4,-4.639 -2.145,-9.016 -5.81,-11.857 z" />
	<path
   id="path942"
   d="M 171.09,165.587 H 100.389 V 150.78 c 0,-5.725 -3.259,-10.95 -8.399,-13.47 -5.14,-2.52 -11.268,-1.895 -15.791,1.615 L 5.81,193.496 C 2.145,196.337 0,200.714 0,205.351 c 0,4.637 2.145,9.014 5.81,11.854 l 70.389,54.571 c 2.681,2.079 5.925,3.146 9.192,3.146 2.246,0 4.505,-0.504 6.599,-1.53 5.141,-2.52 8.399,-7.745 8.399,-13.47 v -14.808 h 70.701 c 8.284,0 15,-6.716 15,-15 v -49.527 c 0,-8.284 -6.716,-15 -15,-15 z" />
</g>
<g
   id="g946">
</g>
<g
   id="g948">
</g>
<g
   id="g950">
</g>
<g
   id="g952">
</g>
<g
   id="g954">
</g>
<g
   id="g956">
</g>
<g
   id="g958">
</g>
<g
   id="g960">
</g>
<g
   id="g962">
</g>
<g
   id="g964">
</g>
<g
   id="g966">
</g>
<g
   id="g968">
</g>
<g
   id="g970">
</g>
<g
   id="g972">
</g>
<g
   id="g974">
</g>
</svg>
